<svg width="256" height="256" viewBox="0 0 256 256" fill="none" xmlns="http://www.w3.org/2000/svg">
<path d="M93 212.5C93 215.261 95.2386 217.5 98 217.5H178C180.761 217.5 183 215.261 183 212.5V183.75C183 171.375 178.594 160.781 169.781 151.969C160.969 143.156 150.375 138.75 138 138.75C125.625 138.75 115.031 143.156 106.219 151.969C97.4062 160.781 93 171.375 93 183.75V212.5ZM169.781 103.031C178.594 94.2188 183 83.625 183 71.25V42.5C183 39.7386 180.761 37.5 178 37.5H98C95.2386 37.5 93 39.7386 93 42.5V71.25C93 83.625 97.4062 94.2188 106.219 103.031C115.031 111.844 125.625 116.25 138 116.25C150.375 116.25 160.969 111.844 169.781 103.031ZM53 240C50.2386 240 48 237.761 48 235V222.5C48 219.739 50.2386 217.5 53 217.5H65.5C68.2614 217.5 70.5 215.261 70.5 212.5V183.75C70.5 172.312 73.1719 161.578 78.5156 151.547C82.5858 143.906 87.8797 137.435 94.3974 132.133C97.2579 129.807 97.2579 125.193 94.3974 122.867C87.8797 117.565 82.5858 111.094 78.5156 103.453C73.1719 93.4219 70.5 82.6875 70.5 71.25V42.5C70.5 39.7386 68.2614 37.5 65.5 37.5H53C50.2386 37.5 48 35.2614 48 32.5V20C48 17.2386 50.2386 15 53 15H223C225.761 15 228 17.2386 228 20V32.5C228 35.2614 225.761 37.5 223 37.5H210.5C207.739 37.5 205.5 39.7386 205.5 42.5V71.25C205.5 82.6875 202.828 93.4219 197.484 103.453C193.414 111.094 188.12 117.565 181.603 122.867C178.742 125.193 178.742 129.807 181.603 132.133C188.12 137.435 193.414 143.906 197.484 151.547C202.828 161.578 205.5 172.312 205.5 183.75V212.5C205.5 215.261 207.739 217.5 210.5 217.5H223C225.761 217.5 228 219.739 228 222.5V235C228 237.761 225.761 240 223 240H53Z" fill="#C8C8C8"/>
<path d="M93 212.5C93 215.261 95.2386 217.5 98 217.5H178C180.761 217.5 183 215.261 183 212.5V183.75C183 171.375 178.594 160.781 169.781 151.969C160.969 143.156 150.375 138.75 138 138.75C125.625 138.75 115.031 143.156 106.219 151.969C97.4062 160.781 93 171.375 93 183.75V212.5ZM169.781 103.031C178.594 94.2188 183 83.625 183 71.25V42.5C183 39.7386 180.761 37.5 178 37.5H98C95.2386 37.5 93 39.7386 93 42.5V71.25C93 83.625 97.4062 94.2188 106.219 103.031C115.031 111.844 125.625 116.25 138 116.25C150.375 116.25 160.969 111.844 169.781 103.031ZM53 240C50.2386 240 48 237.761 48 235V222.5C48 219.739 50.2386 217.5 53 217.5H65.5C68.2614 217.5 70.5 215.261 70.5 212.5V183.75C70.5 172.312 73.1719 161.578 78.5156 151.547C82.5858 143.906 87.8797 137.435 94.3974 132.133C97.2579 129.807 97.2579 125.193 94.3974 122.867C87.8797 117.565 82.5858 111.094 78.5156 103.453C73.1719 93.4219 70.5 82.6875 70.5 71.25V42.5C70.5 39.7386 68.2614 37.5 65.5 37.5H53C50.2386 37.5 48 35.2614 48 32.5V20C48 17.2386 50.2386 15 53 15H223C225.761 15 228 17.2386 228 20V32.5C228 35.2614 225.761 37.5 223 37.5H210.5C207.739 37.5 205.5 39.7386 205.5 42.5V71.25C205.5 82.6875 202.828 93.4219 197.484 103.453C193.414 111.094 188.12 117.565 181.603 122.867C178.742 125.193 178.742 129.807 181.603 132.133C188.12 137.435 193.414 143.906 197.484 151.547C202.828 161.578 205.5 172.312 205.5 183.75V212.5C205.5 215.261 207.739 217.5 210.5 217.5H223C225.761 217.5 228 219.739 228 222.5V235C228 237.761 225.761 240 223 240H53Z" fill="url(#paint0_linear_2_3)" fill-opacity="0.4"/>
<path d="M117.816 210V204.16H133.816V159.12H133.256L119.176 172.24L115.256 168L130.056 154.16H140.536V204.16H155.256V210H117.816Z" fill="#C8C8C8"/>
<path d="M117.816 210V204.16H133.816V159.12H133.256L119.176 172.24L115.256 168L130.056 154.16H140.536V204.16H155.256V210H117.816Z" fill="url(#paint1_linear_2_3)" fill-opacity="0.4"/>
<path d="M111.816 210V204.16H127.816V159.12H127.256L113.176 172.24L109.256 168L124.056 154.16H134.536V204.16H149.256V210H111.816Z" fill="url(#paint2_linear_2_3)"/>
<path d="M135.016 106.96C131.602 106.96 128.669 106.32 126.216 105.04C123.762 103.707 121.736 101.813 120.136 99.36C118.536 96.9067 117.362 93.8933 116.616 90.32C115.869 86.7467 115.496 82.6667 115.496 78.08C115.496 73.5467 115.869 69.4933 116.616 65.92C117.362 62.2933 118.536 59.2533 120.136 56.8C121.736 54.3467 123.762 52.48 126.216 51.2C128.669 49.8667 131.602 49.2 135.016 49.2C138.429 49.2 141.362 49.8667 143.816 51.2C146.269 52.48 148.296 54.3467 149.896 56.8C151.496 59.2533 152.669 62.2933 153.416 65.92C154.162 69.4933 154.536 73.5467 154.536 78.08C154.536 82.6667 154.162 86.7467 153.416 90.32C152.669 93.8933 151.496 96.9067 149.896 99.36C148.296 101.813 146.269 103.707 143.816 105.04C141.362 106.32 138.429 106.96 135.016 106.96ZM135.016 101.12C137.256 101.12 139.176 100.693 140.776 99.84C142.376 98.9333 143.656 97.68 144.616 96.08C145.629 94.48 146.376 92.56 146.856 90.32C147.336 88.0267 147.576 85.4667 147.576 82.64V73.52C147.576 70.7467 147.336 68.2133 146.856 65.92C146.376 63.6267 145.629 61.68 144.616 60.08C143.656 58.48 142.376 57.2533 140.776 56.4C139.176 55.4933 137.256 55.04 135.016 55.04C132.776 55.04 130.856 55.4933 129.256 56.4C127.656 57.2533 126.349 58.48 125.336 60.08C124.376 61.68 123.656 63.6267 123.176 65.92C122.696 68.2133 122.456 70.7467 122.456 73.52V82.64C122.456 85.4667 122.696 88.0267 123.176 90.32C123.656 92.56 124.376 94.48 125.336 96.08C126.349 97.68 127.656 98.9333 129.256 99.84C130.856 100.693 132.776 101.12 135.016 101.12ZM135.016 82.8C133.149 82.8 131.842 82.4267 131.096 81.68C130.402 80.9333 130.056 80.0267 130.056 78.96V77.2C130.056 76.1333 130.402 75.2267 131.096 74.48C131.842 73.7333 133.149 73.36 135.016 73.36C136.882 73.36 138.162 73.7333 138.856 74.48C139.602 75.2267 139.976 76.1333 139.976 77.2V78.96C139.976 80.0267 139.602 80.9333 138.856 81.68C138.162 82.4267 136.882 82.8 135.016 82.8Z" fill="#C8C8C8"/>
<path d="M135.016 106.96C131.602 106.96 128.669 106.32 126.216 105.04C123.762 103.707 121.736 101.813 120.136 99.36C118.536 96.9067 117.362 93.8933 116.616 90.32C115.869 86.7467 115.496 82.6667 115.496 78.08C115.496 73.5467 115.869 69.4933 116.616 65.92C117.362 62.2933 118.536 59.2533 120.136 56.8C121.736 54.3467 123.762 52.48 126.216 51.2C128.669 49.8667 131.602 49.2 135.016 49.2C138.429 49.2 141.362 49.8667 143.816 51.2C146.269 52.48 148.296 54.3467 149.896 56.8C151.496 59.2533 152.669 62.2933 153.416 65.92C154.162 69.4933 154.536 73.5467 154.536 78.08C154.536 82.6667 154.162 86.7467 153.416 90.32C152.669 93.8933 151.496 96.9067 149.896 99.36C148.296 101.813 146.269 103.707 143.816 105.04C141.362 106.32 138.429 106.96 135.016 106.96ZM135.016 101.12C137.256 101.12 139.176 100.693 140.776 99.84C142.376 98.9333 143.656 97.68 144.616 96.08C145.629 94.48 146.376 92.56 146.856 90.32C147.336 88.0267 147.576 85.4667 147.576 82.64V73.52C147.576 70.7467 147.336 68.2133 146.856 65.92C146.376 63.6267 145.629 61.68 144.616 60.08C143.656 58.48 142.376 57.2533 140.776 56.4C139.176 55.4933 137.256 55.04 135.016 55.04C132.776 55.04 130.856 55.4933 129.256 56.4C127.656 57.2533 126.349 58.48 125.336 60.08C124.376 61.68 123.656 63.6267 123.176 65.92C122.696 68.2133 122.456 70.7467 122.456 73.52V82.64C122.456 85.4667 122.696 88.0267 123.176 90.32C123.656 92.56 124.376 94.48 125.336 96.08C126.349 97.68 127.656 98.9333 129.256 99.84C130.856 100.693 132.776 101.12 135.016 101.12ZM135.016 82.8C133.149 82.8 131.842 82.4267 131.096 81.68C130.402 80.9333 130.056 80.0267 130.056 78.96V77.2C130.056 76.1333 130.402 75.2267 131.096 74.48C131.842 73.7333 133.149 73.36 135.016 73.36C136.882 73.36 138.162 73.7333 138.856 74.48C139.602 75.2267 139.976 76.1333 139.976 77.2V78.96C139.976 80.0267 139.602 80.9333 138.856 81.68C138.162 82.4267 136.882 82.8 135.016 82.8Z" fill="url(#paint3_linear_2_3)" fill-opacity="0.4"/>
<path d="M129.016 106.96C125.602 106.96 122.669 106.32 120.216 105.04C117.762 103.707 115.736 101.813 114.136 99.36C112.536 96.9067 111.362 93.8933 110.616 90.32C109.869 86.7467 109.496 82.6667 109.496 78.08C109.496 73.5467 109.869 69.4933 110.616 65.92C111.362 62.2933 112.536 59.2533 114.136 56.8C115.736 54.3467 117.762 52.48 120.216 51.2C122.669 49.8667 125.602 49.2 129.016 49.2C132.429 49.2 135.362 49.8667 137.816 51.2C140.269 52.48 142.296 54.3467 143.896 56.8C145.496 59.2533 146.669 62.2933 147.416 65.92C148.162 69.4933 148.536 73.5467 148.536 78.08C148.536 82.6667 148.162 86.7467 147.416 90.32C146.669 93.8933 145.496 96.9067 143.896 99.36C142.296 101.813 140.269 103.707 137.816 105.04C135.362 106.32 132.429 106.96 129.016 106.96ZM129.016 101.12C131.256 101.12 133.176 100.693 134.776 99.84C136.376 98.9333 137.656 97.68 138.616 96.08C139.629 94.48 140.376 92.56 140.856 90.32C141.336 88.0267 141.576 85.4667 141.576 82.64V73.52C141.576 70.7467 141.336 68.2133 140.856 65.92C140.376 63.6267 139.629 61.68 138.616 60.08C137.656 58.48 136.376 57.2533 134.776 56.4C133.176 55.4933 131.256 55.04 129.016 55.04C126.776 55.04 124.856 55.4933 123.256 56.4C121.656 57.2533 120.349 58.48 119.336 60.08C118.376 61.68 117.656 63.6267 117.176 65.92C116.696 68.2133 116.456 70.7467 116.456 73.52V82.64C116.456 85.4667 116.696 88.0267 117.176 90.32C117.656 92.56 118.376 94.48 119.336 96.08C120.349 97.68 121.656 98.9333 123.256 99.84C124.856 100.693 126.776 101.12 129.016 101.12ZM129.016 82.8C127.149 82.8 125.842 82.4267 125.096 81.68C124.402 80.9333 124.056 80.0267 124.056 78.96V77.2C124.056 76.1333 124.402 75.2267 125.096 74.48C125.842 73.7333 127.149 73.36 129.016 73.36C130.882 73.36 132.162 73.7333 132.856 74.48C133.602 75.2267 133.976 76.1333 133.976 77.2V78.96C133.976 80.0267 133.602 80.9333 132.856 81.68C132.162 82.4267 130.882 82.8 129.016 82.8Z" fill="url(#paint4_linear_2_3)"/>
<path d="M83 212.5C83 215.261 85.2386 217.5 88 217.5H168C170.761 217.5 173 215.261 173 212.5V183.75C173 171.375 168.594 160.781 159.781 151.969C150.969 143.156 140.375 138.75 128 138.75C115.625 138.75 105.031 143.156 96.2188 151.969C87.4062 160.781 83 171.375 83 183.75V212.5ZM159.781 103.031C168.594 94.2188 173 83.625 173 71.25V42.5C173 39.7386 170.761 37.5 168 37.5H88C85.2386 37.5 83 39.7386 83 42.5V71.25C83 83.625 87.4062 94.2188 96.2188 103.031C105.031 111.844 115.625 116.25 128 116.25C140.375 116.25 150.969 111.844 159.781 103.031ZM43 240C40.2386 240 38 237.761 38 235V222.5C38 219.739 40.2386 217.5 43 217.5H55.5C58.2614 217.5 60.5 215.261 60.5 212.5V183.75C60.5 172.312 63.1719 161.578 68.5156 151.547C72.5858 143.906 77.8797 137.435 84.3974 132.133C87.2579 129.807 87.2579 125.193 84.3974 122.867C77.8797 117.565 72.5858 111.094 68.5156 103.453C63.1719 93.4219 60.5 82.6875 60.5 71.25V42.5C60.5 39.7386 58.2614 37.5 55.5 37.5H43C40.2386 37.5 38 35.2614 38 32.5V20C38 17.2386 40.2386 15 43 15H213C215.761 15 218 17.2386 218 20V32.5C218 35.2614 215.761 37.5 213 37.5H200.5C197.739 37.5 195.5 39.7386 195.5 42.5V71.25C195.5 82.6875 192.828 93.4219 187.484 103.453C183.414 111.094 178.12 117.565 171.603 122.867C168.742 125.193 168.742 129.807 171.603 132.133C178.12 137.435 183.414 143.906 187.484 151.547C192.828 161.578 195.5 172.312 195.5 183.75V212.5C195.5 215.261 197.739 217.5 200.5 217.5H213C215.761 217.5 218 219.739 218 222.5V235C218 237.761 215.761 240 213 240H43Z" fill="url(#paint5_linear_2_3)"/>
<defs>
<linearGradient id="paint0_linear_2_3" x1="138" y1="15" x2="138" y2="313" gradientUnits="userSpaceOnUse">
<stop stop-color="#49CFFF"/>
<stop offset="1" stop-color="#0015FF"/>
</linearGradient>
<linearGradient id="paint1_linear_2_3" x1="135" y1="89.5" x2="135" y2="301.5" gradientUnits="userSpaceOnUse">
<stop stop-color="#49CFFF"/>
<stop offset="1" stop-color="#0015FF"/>
</linearGradient>
<linearGradient id="paint2_linear_2_3" x1="129" y1="89.5" x2="129" y2="301.5" gradientUnits="userSpaceOnUse">
<stop stop-color="#49CFFF"/>
<stop offset="1" stop-color="#0015FF"/>
</linearGradient>
<linearGradient id="paint3_linear_2_3" x1="135" y1="24" x2="135" y2="166.5" gradientUnits="userSpaceOnUse">
<stop offset="0.149038" stop-color="#49CFFF"/>
<stop offset="1" stop-color="#0015FF"/>
</linearGradient>
<linearGradient id="paint4_linear_2_3" x1="129" y1="24" x2="129" y2="166.5" gradientUnits="userSpaceOnUse">
<stop offset="0.149038" stop-color="#49CFFF"/>
<stop offset="1" stop-color="#0015FF"/>
</linearGradient>
<linearGradient id="paint5_linear_2_3" x1="128" y1="15" x2="128" y2="313" gradientUnits="userSpaceOnUse">
<stop stop-color="#49CFFF"/>
<stop offset="1" stop-color="#0015FF"/>
</linearGradient>
</defs>
</svg>
